<svg width="2451" height="550" viewBox="0 0 2451 550" fill="none" xmlns="http://www.w3.org/2000/svg">
<path d="M36.8608 164.328L204.839 282.494L36.8608 400.646V164.328Z" fill="white"/>
<path d="M210.472 112.209V229.664L36.9766 107.623C39.3557 61.5892 77.2544 25 123.666 25C170.078 25 210.472 64.0439 210.472 112.209Z" fill="white"/>
<path d="M38.777 456.085L210.472 335.31V437.791C210.472 461.873 200.75 483.682 185.048 499.457C169.345 515.233 147.638 525 123.666 525C81.974 525 47.1489 495.465 38.777 456.085Z" fill="white"/>
<path d="M453.412 107.623L279.916 229.664V112.209C279.916 64.0439 318.78 25 366.722 25C414.664 25 451.033 61.5892 453.412 107.623Z" fill="white"/>
<path d="M279.916 335.31L451.611 456.085C448.049 472.83 439.716 487.791 428.103 499.457C412.401 515.233 390.693 525 366.722 525C318.78 525 279.916 485.956 279.916 437.791V335.31Z" fill="white"/>
<path d="M453.528 164.328V400.646L285.549 282.494L453.528 164.328Z" fill="white"/>
<path d="M616.958 444.967L742.404 99.4684H797.591L923.501 444.967H873.647L802.924 243.928C797.977 229.707 792.49 212.934 786.461 193.611C780.432 174.288 773.089 150.018 764.432 120.801H775.099C766.597 150.172 759.254 174.597 753.07 194.075C747.042 213.552 741.631 230.17 736.839 243.928L666.812 444.967H616.958ZM682.579 350.824V310.477H858.111V350.824H682.579Z" fill="white"/>
<path d="M1002.7 99.4684V444.967H956.093V99.4684H1002.7Z" fill="white"/>
<path d="M1276.34 450.532C1252.85 450.532 1232.29 445.044 1214.67 434.068C1197.04 422.938 1183.28 407.557 1173.39 387.925C1163.65 368.138 1158.78 345.182 1158.78 319.057C1158.78 292.777 1163.65 269.744 1173.39 249.957C1183.28 230.17 1197.04 214.712 1214.67 203.582C1232.29 192.451 1252.85 186.886 1276.34 186.886C1299.84 186.886 1320.4 192.451 1338.02 203.582C1355.8 214.712 1369.56 230.17 1379.3 249.957C1389.19 269.744 1394.14 292.777 1394.14 319.057C1394.14 345.182 1389.19 368.138 1379.3 387.925C1369.56 407.557 1355.8 422.938 1338.02 434.068C1320.4 445.044 1299.84 450.532 1276.34 450.532ZM1276.34 411.344C1292.42 411.344 1305.87 407.248 1316.69 399.055C1327.51 390.862 1335.63 379.809 1341.04 365.896C1346.45 351.983 1349.15 336.37 1349.15 319.057C1349.15 301.743 1346.45 286.053 1341.04 271.986C1335.63 257.918 1327.51 246.788 1316.69 238.595C1305.87 230.248 1292.42 226.074 1276.34 226.074C1260.42 226.074 1247.05 230.248 1236.23 238.595C1225.56 246.788 1217.45 257.918 1211.88 271.986C1206.47 285.898 1203.77 301.589 1203.77 319.057C1203.77 336.37 1206.47 351.983 1211.88 365.896C1217.45 379.809 1225.56 390.862 1236.23 399.055C1246.9 407.248 1260.27 411.344 1276.34 411.344Z" fill="white"/>
<path d="M1434.15 444.967V191.06H1476.82V230.943H1478.9C1483.7 217.649 1491.66 207.137 1502.79 199.408C1514.07 191.524 1527.37 187.582 1542.67 187.582C1546.07 187.582 1549.63 187.737 1553.34 188.046C1557.2 188.2 1560.29 188.355 1562.61 188.51V232.103C1561.07 231.639 1557.82 231.098 1552.87 230.479C1547.93 229.861 1542.67 229.552 1537.11 229.552C1526.13 229.552 1516.16 231.948 1507.19 236.74C1498.38 241.532 1491.43 248.334 1486.32 257.145C1481.22 265.957 1478.67 276.623 1478.67 289.145V444.967H1434.15Z" fill="white"/>
<path d="M1707.56 444.967V99.4684H1761.36L1898.63 315.811C1902.19 321.53 1906.51 328.796 1911.62 337.607C1916.87 346.264 1922.36 355.925 1928.08 366.592C1933.95 377.258 1939.67 388.466 1945.24 400.214L1939.67 403.692C1938.59 392.253 1937.74 380.582 1937.12 368.679C1936.66 356.621 1936.35 345.336 1936.19 334.825C1936.04 324.313 1935.96 315.811 1935.96 309.318V99.4684H1982.8V444.967H1928.31L1806.11 252.044C1801.01 244.16 1795.52 235.349 1789.65 225.61C1783.93 215.717 1777.28 204.2 1769.71 191.06C1762.29 177.92 1753.48 162.462 1743.27 144.685L1750.69 140.511C1751.47 157.979 1752.08 173.979 1752.55 188.51C1753.17 202.886 1753.63 215.485 1753.94 226.306C1754.4 236.972 1754.63 245.474 1754.63 251.812V444.967H1707.56Z" fill="white"/>
<path d="M2145.01 450.532C2121.52 450.532 2100.96 445.044 2083.34 434.068C2065.71 422.938 2051.95 407.557 2042.06 387.925C2032.32 368.138 2027.45 345.182 2027.45 319.057C2027.45 292.777 2032.32 269.744 2042.06 249.957C2051.95 230.17 2065.71 214.712 2083.34 203.582C2100.96 192.451 2121.52 186.886 2145.01 186.886C2168.51 186.886 2189.07 192.451 2206.69 203.582C2224.47 214.712 2238.23 230.17 2247.97 249.957C2257.86 269.744 2262.81 292.777 2262.81 319.057C2262.81 345.182 2257.86 368.138 2247.97 387.925C2238.23 407.557 2224.47 422.938 2206.69 434.068C2189.07 445.044 2168.51 450.532 2145.01 450.532ZM2145.01 411.344C2161.09 411.344 2174.54 407.248 2185.36 399.055C2196.18 390.862 2204.3 379.809 2209.71 365.896C2215.12 351.983 2217.82 336.37 2217.82 319.057C2217.82 301.743 2215.12 286.053 2209.71 271.986C2204.3 257.918 2196.18 246.788 2185.36 238.595C2174.54 230.248 2161.09 226.074 2145.01 226.074C2129.09 226.074 2115.72 230.248 2104.9 238.595C2094.23 246.788 2086.12 257.918 2080.55 271.986C2075.14 285.898 2072.44 301.589 2072.44 319.057C2072.44 336.37 2075.14 351.983 2080.55 365.896C2086.12 379.809 2094.23 390.862 2104.9 399.055C2115.57 407.248 2128.94 411.344 2145.01 411.344Z" fill="white"/>
<path d="M2410.41 191.06V228.393H2273.84V191.06H2410.41ZM2314.18 127.526H2358.7V379.113C2358.7 389.625 2360.87 397.2 2365.2 401.837C2369.53 406.475 2376.87 408.794 2387.23 408.794C2390.32 408.794 2393.95 408.639 2398.12 408.33C2402.3 407.866 2406.08 407.402 2409.49 406.939L2414.82 444.039C2410.34 445.121 2405.31 445.894 2399.75 446.358C2394.34 446.822 2389 447.053 2383.75 447.053C2361.33 447.053 2344.1 441.566 2332.04 430.59C2320.14 419.615 2314.18 403.847 2314.18 383.287V127.526Z" fill="white"/>
</svg>
