<svg width="2451" height="550" viewBox="0 0 2451 550" fill="none" xmlns="http://www.w3.org/2000/svg">
<path d="M36.9479 164.328L204.926 282.494L36.9479 400.646V164.328Z" fill="black"/>
<path d="M210.559 112.209V229.664L37.0636 107.623C39.4427 61.5892 77.3414 25 123.753 25C170.165 25 210.559 64.0439 210.559 112.209Z" fill="black"/>
<path d="M38.864 456.085L210.559 335.31V437.791C210.559 461.873 200.837 483.682 185.135 499.457C169.432 515.233 147.725 525 123.753 525C82.0611 525 47.2359 495.465 38.864 456.085Z" fill="black"/>
<path d="M453.499 107.623L280.003 229.664V112.209C280.003 64.0439 318.867 25 366.809 25C414.751 25 451.12 61.5892 453.499 107.623Z" fill="black"/>
<path d="M280.003 335.31L451.698 456.085C448.136 472.83 439.803 487.791 428.19 499.457C412.488 515.233 390.78 525 366.809 525C318.867 525 280.003 485.956 280.003 437.791V335.31Z" fill="black"/>
<path d="M453.615 164.328V400.646L285.636 282.494L453.615 164.328Z" fill="black"/>
<path d="M617.045 444.967L742.491 99.4685H797.678L923.588 444.967H873.734L803.011 243.928C798.064 229.707 792.577 212.934 786.548 193.611C780.519 174.288 773.176 150.018 764.519 120.801H775.186C766.683 150.172 759.341 174.597 753.157 194.075C747.128 213.552 741.718 230.17 736.926 243.928L666.899 444.967H617.045ZM682.666 350.824V310.477H858.198V350.824H682.666Z" fill="black"/>
<path d="M1002.79 99.4685V444.967H956.18V99.4685H1002.79Z" fill="black"/>
<path d="M1276.43 450.532C1252.93 450.532 1232.37 445.044 1214.75 434.068C1197.13 422.938 1183.37 407.557 1173.48 387.925C1163.74 368.138 1158.87 345.182 1158.87 319.057C1158.87 292.777 1163.74 269.744 1173.48 249.957C1183.37 230.17 1197.13 214.712 1214.75 203.582C1232.37 192.452 1252.93 186.886 1276.43 186.886C1299.93 186.886 1320.49 192.452 1338.11 203.582C1355.89 214.712 1369.65 230.17 1379.39 249.957C1389.28 269.744 1394.23 292.777 1394.23 319.057C1394.23 345.182 1389.28 368.138 1379.39 387.925C1369.65 407.557 1355.89 422.938 1338.11 434.068C1320.49 445.044 1299.93 450.532 1276.43 450.532ZM1276.43 411.344C1292.51 411.344 1305.96 407.248 1316.78 399.055C1327.6 390.862 1335.71 379.809 1341.13 365.896C1346.54 351.984 1349.24 336.37 1349.24 319.057C1349.24 301.743 1346.54 286.053 1341.13 271.986C1335.71 257.918 1327.6 246.788 1316.78 238.595C1305.96 230.248 1292.51 226.074 1276.43 226.074C1260.51 226.074 1247.14 230.248 1236.32 238.595C1225.65 246.788 1217.53 257.918 1211.97 271.986C1206.56 285.898 1203.85 301.589 1203.85 319.057C1203.85 336.37 1206.56 351.984 1211.97 365.896C1217.53 379.809 1225.65 390.862 1236.32 399.055C1246.98 407.248 1260.35 411.344 1276.43 411.344Z" fill="black"/>
<path d="M1434.24 444.967V191.06H1476.9V230.943H1478.99C1483.78 217.649 1491.74 207.137 1502.87 199.408C1514.16 191.524 1527.45 187.582 1542.76 187.582C1546.16 187.582 1549.71 187.737 1553.42 188.046C1557.29 188.2 1560.38 188.355 1562.7 188.51V232.103C1561.15 231.639 1557.91 231.098 1552.96 230.48C1548.01 229.861 1542.76 229.552 1537.19 229.552C1526.22 229.552 1516.25 231.948 1507.28 236.74C1498.47 241.532 1491.51 248.334 1486.41 257.145C1481.31 265.957 1478.76 276.623 1478.76 289.145V444.967H1434.24Z" fill="black"/>
<path d="M1707.65 444.967V99.4685H1761.45L1898.72 315.811C1902.27 321.53 1906.6 328.796 1911.7 337.607C1916.96 346.264 1922.45 355.925 1928.17 366.592C1934.04 377.258 1939.76 388.466 1945.33 400.214L1939.76 403.692C1938.68 392.253 1937.83 380.582 1937.21 368.679C1936.75 356.621 1936.44 345.336 1936.28 334.825C1936.13 324.313 1936.05 315.811 1936.05 309.318V99.4685H1982.89V444.967H1928.4L1806.2 252.044C1801.1 244.16 1795.61 235.349 1789.73 225.61C1784.02 215.717 1777.37 204.2 1769.79 191.06C1762.37 177.921 1753.56 162.462 1743.36 144.685L1750.78 140.511C1751.55 157.979 1752.17 173.979 1752.63 188.51C1753.25 202.886 1753.72 215.485 1754.03 226.306C1754.49 236.972 1754.72 245.474 1754.72 251.812V444.967H1707.65Z" fill="black"/>
<path d="M2145.1 450.532C2121.6 450.532 2101.04 445.044 2083.42 434.068C2065.8 422.938 2052.04 407.557 2042.15 387.925C2032.41 368.138 2027.54 345.182 2027.54 319.057C2027.54 292.777 2032.41 269.744 2042.15 249.957C2052.04 230.17 2065.8 214.712 2083.42 203.582C2101.04 192.452 2121.6 186.886 2145.1 186.886C2168.6 186.886 2189.16 192.452 2206.78 203.582C2224.56 214.712 2238.32 230.17 2248.06 249.957C2257.95 269.744 2262.9 292.777 2262.9 319.057C2262.9 345.182 2257.95 368.138 2248.06 387.925C2238.32 407.557 2224.56 422.938 2206.78 434.068C2189.16 445.044 2168.6 450.532 2145.1 450.532ZM2145.1 411.344C2161.18 411.344 2174.63 407.248 2185.45 399.055C2196.27 390.862 2204.39 379.809 2209.8 365.896C2215.21 351.984 2217.91 336.37 2217.91 319.057C2217.91 301.743 2215.21 286.053 2209.8 271.986C2204.39 257.918 2196.27 246.788 2185.45 238.595C2174.63 230.248 2161.18 226.074 2145.1 226.074C2129.18 226.074 2115.81 230.248 2104.99 238.595C2094.32 246.788 2086.2 257.918 2080.64 271.986C2075.23 285.898 2072.52 301.589 2072.52 319.057C2072.52 336.37 2075.23 351.984 2080.64 365.896C2086.2 379.809 2094.32 390.862 2104.99 399.055C2115.65 407.248 2129.02 411.344 2145.1 411.344Z" fill="black"/>
<path d="M2410.5 191.06V228.393H2273.92V191.06H2410.5ZM2314.27 127.526H2358.79V379.113C2358.79 389.625 2360.96 397.2 2365.28 401.837C2369.61 406.475 2376.96 408.794 2387.31 408.794C2390.4 408.794 2394.04 408.639 2398.21 408.33C2402.38 407.866 2406.17 407.402 2409.57 406.939L2414.91 444.039C2410.42 445.121 2405.4 445.894 2399.83 446.358C2394.42 446.822 2389.09 447.053 2383.83 447.053C2361.42 447.053 2344.18 441.566 2332.13 430.59C2320.22 419.615 2314.27 403.847 2314.27 383.287V127.526Z" fill="black"/>
</svg>
